# xmcd
#
# Track frame offsets: 
#        150
#        14920
#        27965
#        43107
#        65540
#        85105
#        101290
#        118072
#        138840
#        155420
#        176152
#        193562
#        206130
#        220827
#        234705
#        250490
#        266687
#        281675
#        297077
#        317202
#        332452
#
# Disc length: 4699 seconds
#
# Revision: 0
# Processed by: cddbd v1.5.2PL0 Copyright (c) Steve Scherf et al.
# Submitted via: ExactAudioCopy v0.99pb5
#
DISCID=40125915
DTITLE=Hi Fi - За мной
DYEAR=1900
DGENRE=Dance
TTITLE0=За мной
TTITLE1=Он
TTITLE2=Про лето
TTITLE3=Арабика
TTITLE4=Черный ворон
TTITLE5=Не дано
TTITLE6=Беспризорники
TTITLE7=Пионер
TTITLE8=Call me Misha
TTITLE9=Нить
TTITLE10=В последний раз
TTITLE11=Georgia
TTITLE12=Ты погляди
TTITLE13=Сон
TTITLE14=Ты прости
TTITLE15=Звезда
TTITLE16=Не дано
TTITLE17=Ты прости
TTITLE18=Пионер
TTITLE19=Нить
TTITLE20=Беспризорники
EXTD=
EXTT0=
EXTT1=
EXTT2=
EXTT3=
EXTT4=
EXTT5=
EXTT6=
EXTT7=
EXTT8=
EXTT9=
EXTT10=
EXTT11=
EXTT12=
EXTT13=
EXTT14=
EXTT15=
EXTT16=
EXTT17=
EXTT18=
EXTT19=
EXTT20=
PLAYORDER=
